<svg width="24" height="24" viewBox="0 0 24 24" fill="none" xmlns="http://www.w3.org/2000/svg">
<path d="M19.5 16.125C20.1213 16.125 20.625 15.6213 20.625 15C20.625 14.3787 20.1213 13.875 19.5 13.875C18.8787 13.875 18.375 14.3787 18.375 15C18.375 15.6213 18.8787 16.125 19.5 16.125Z" fill="#1876D2"/>
<path d="M19.5 18C21.1569 18 22.5 16.6569 22.5 15C22.5 13.3431 21.1569 12 19.5 12C17.8431 12 16.5 13.3431 16.5 15C16.5 16.6569 17.8431 18 19.5 18Z" stroke="#1876D2" stroke-width="1.25" stroke-linecap="round" stroke-linejoin="round"/>
<path d="M9.75 13.5V18C9.75 18.9946 10.1451 19.9484 10.8483 20.6516C11.5516 21.3549 12.5054 21.75 13.5 21.75H15.75C16.7446 21.75 17.6984 21.3549 18.4017 20.6516C19.1049 19.9484 19.5 18.9946 19.5 18" stroke="#1876D2" stroke-width="1.25" stroke-linecap="round" stroke-linejoin="round"/>
<path d="M12.75 3.75H15V8.17219C15 11.0569 12.705 13.4625 9.81937 13.5C9.12412 13.5092 8.43396 13.3802 7.78898 13.1205C7.14399 12.8607 6.55702 12.4755 6.06214 11.9871C5.56726 11.4986 5.17433 10.9168 4.90616 10.2752C4.638 9.63372 4.49994 8.94532 4.5 8.25V3.75H6.75" stroke="#1876D2" stroke-width="1.25" stroke-linecap="round" stroke-linejoin="round"/>
</svg>
